<svg width="271" height="40" viewBox="0 0 271 40" fill="none" xmlns="http://www.w3.org/2000/svg">
<rect width="40" height="40" rx="8" fill="white"/>
<path d="M31 11.0101C31 11.0101 28.982 12.2021 27.86 12.5401C27.2577 11.8476 26.4573 11.3567 25.567 11.134C24.6767 10.9112 23.7395 10.9673 22.8821 11.2945C22.0247 11.6218 21.2884 12.2045 20.773 12.9638C20.2575 13.7231 19.9877 14.6224 20 15.5401V16.5401C18.2426 16.5856 16.5013 16.1959 14.931 15.4055C13.3607 14.6151 12.0103 13.4487 11 12.0101C11 12.0101 7 21.0101 16 25.0101C13.9405 26.408 11.4872 27.109 9 27.0101C18 32.0101 29 27.0101 29 15.5101C29 15.2321 28.972 14.9541 28.92 14.6801C29.94 13.6741 31 11.0101 31 11.0101Z" stroke="#2FB95D" stroke-width="1.5" stroke-linecap="round" stroke-linejoin="round"/>
<path d="M92 24C93.0609 24 94.0783 23.5786 94.8284 22.8284C95.5786 22.0783 96 21.0609 96 20C96 18.9391 95.5786 17.9217 94.8284 17.1716C94.0783 16.4214 93.0609 16 92 16C90.9391 16 89.9217 16.4214 89.1716 17.1716C88.4214 17.9217 88 18.9391 88 20C88 21.0609 88.4214 22.0783 89.1716 22.8284C89.9217 23.5786 90.9391 24 92 24V24Z" stroke="white" stroke-width="1.5" stroke-linecap="round" stroke-linejoin="round"/>
<path d="M83 24V16C83 14.6739 83.5268 13.4021 84.4645 12.4645C85.4021 11.5268 86.6739 11 88 11H96C97.3261 11 98.5979 11.5268 99.5355 12.4645C100.473 13.4021 101 14.6739 101 16V24C101 25.3261 100.473 26.5979 99.5355 27.5355C98.5979 28.4732 97.3261 29 96 29H88C86.6739 29 85.4021 28.4732 84.4645 27.5355C83.5268 26.5979 83 25.3261 83 24Z" stroke="white" stroke-width="1.5"/>
<path d="M97.5 14.51L97.51 14.499" stroke="white" stroke-width="1.5" stroke-linecap="round" stroke-linejoin="round"/>
<rect x="72.5" y="0.5" width="39" height="39" rx="7.5" stroke="white"/>
<path d="M169 10H166C164.674 10 163.402 10.5268 162.464 11.4645C161.527 12.4021 161 13.6739 161 15V18H158V22H161V30H165V22H168L169 18H165V15C165 14.7348 165.105 14.4804 165.293 14.2929C165.48 14.1054 165.735 14 166 14H169V10Z" stroke="white" stroke-width="1.5" stroke-linecap="round" stroke-linejoin="round"/>
<rect x="144.5" y="0.5" width="39" height="39" rx="7.5" stroke="white"/>
<path d="M238 20L234.5 22V18L238 20Z" fill="white" stroke="white" stroke-width="1.5" stroke-linecap="round" stroke-linejoin="round"/>
<path d="M226 20.7069V19.2919C226 16.3969 226 14.9489 226.905 14.0179C227.811 13.0859 229.237 13.0459 232.088 12.9649C233.438 12.9269 234.818 12.8999 236 12.8999C237.181 12.8999 238.561 12.9269 239.912 12.9649C242.763 13.0459 244.189 13.0859 245.094 14.0179C246 14.9489 246 16.3979 246 19.2919V20.7069C246 23.6029 246 25.0499 245.095 25.9819C244.189 26.9129 242.764 26.9539 239.912 27.0339C238.562 27.0729 237.182 27.0999 236 27.0999C234.696 27.096 233.392 27.074 232.088 27.0339C229.237 26.9539 227.811 26.9139 226.905 25.9819C226 25.0499 226 23.6019 226 20.7079V20.7069Z" stroke="white" stroke-width="1.5"/>
<rect x="216.5" y="0.5" width="39" height="39" rx="7.5" stroke="white"/>
</svg>
