<svg width="242" height="80" viewBox="0 0 242 80" fill="none" xmlns="http://www.w3.org/2000/svg">
<path d="M13.15 45.7C10.55 45.7 8.36667 45.3333 6.6 44.6C4.86667 43.8333 3.55 42.7167 2.65 41.25C1.78333 39.75 1.36667 37.9167 1.4 35.75L7.4 34.95C7.4 36.7833 7.91667 38.15 8.95 39.05C9.98333 39.95 11.4167 40.4 13.25 40.4C15.4167 40.4 17.0167 39.8167 18.05 38.65C19.1167 37.45 19.65 35.75 19.65 33.55C19.65 32.5833 19.55 31.7 19.35 30.9C19.15 30.1 18.8333 29.4 18.4 28.8C18 28.2 17.4667 27.75 16.8 27.45C16.1333 27.1167 15.3167 26.95 14.35 26.95C13.5167 26.95 12.7667 27.0833 12.1 27.35C11.4333 27.5833 10.8667 27.9167 10.4 28.35C9.96667 28.7833 9.61667 29.2667 9.35 29.8C9.08333 30.3 8.9 30.8 8.8 31.3H2.1L3.7 11.95H24.9V17.3H9.1L8.1 28.7H8.3C8.83333 26.7 9.78333 25.15 11.15 24.05C12.5167 22.9167 14.3333 22.35 16.6 22.35C18.7333 22.35 20.5167 22.8333 21.95 23.8C23.3833 24.7667 24.45 26.1 25.15 27.8C25.85 29.5 26.2 31.4667 26.2 33.7C26.2 36.4333 25.6833 38.6833 24.65 40.45C23.6167 42.2167 22.1167 43.5333 20.15 44.4C18.2167 45.2667 15.8833 45.7 13.15 45.7ZM42.3855 45.7C40.2189 45.7 38.3189 45.3 36.6855 44.5C35.0522 43.6667 33.6855 42.5 32.5855 41C31.5189 39.5 30.7022 37.7167 30.1355 35.65C29.6022 33.55 29.3355 31.25 29.3355 28.75C29.3355 25.05 29.8522 21.9167 30.8855 19.35C31.9522 16.75 33.4689 14.7667 35.4355 13.4C37.4355 12 39.8355 11.3 42.6355 11.3C45.4689 11.3 47.8522 12 49.7855 13.4C51.7522 14.7667 53.2355 16.75 54.2355 19.35C55.2355 21.9167 55.7355 24.9833 55.7355 28.55C55.7355 31.1167 55.4522 33.45 54.8855 35.55C54.3189 37.65 53.4855 39.45 52.3855 40.95C51.2855 42.45 49.9022 43.6167 48.2355 44.45C46.5689 45.2833 44.6189 45.7 42.3855 45.7ZM42.5855 40.5C43.6855 40.5 44.6522 40.25 45.4855 39.75C46.3189 39.25 47.0022 38.5167 47.5355 37.55C48.1022 36.55 48.5189 35.3333 48.7855 33.9C49.0522 32.4333 49.1855 30.75 49.1855 28.85C49.1855 26.2167 48.9355 24 48.4355 22.2C47.9689 20.3667 47.2355 18.9667 46.2355 18C45.2689 17.0333 44.0189 16.55 42.4855 16.55C41.0522 16.55 39.8355 17.0167 38.8355 17.95C37.8355 18.8833 37.0855 20.25 36.5855 22.05C36.1189 23.8167 35.8855 26.0167 35.8855 28.65C35.8855 30.55 36.0189 32.2333 36.2855 33.7C36.5855 35.1667 37.0022 36.4167 37.5355 37.45C38.1022 38.45 38.8022 39.2167 39.6355 39.75C40.5022 40.25 41.4855 40.5 42.5855 40.5ZM59.673 45V12H66.023V26.7C67.923 26.3 69.623 25.6167 71.123 24.65C72.6564 23.65 73.973 22.4667 75.073 21.1C76.173 19.7333 77.0564 18.2667 77.723 16.7C78.423 15.1333 78.9064 13.5667 79.173 12H86.173C85.8397 13.9 85.273 15.7167 84.473 17.45C83.673 19.1833 82.673 20.7667 81.473 22.2C80.273 23.6333 78.8897 24.8833 77.323 25.95C75.7564 27.0167 74.0397 27.85 72.173 28.45V28.85C74.2397 28.75 75.9564 28.9167 77.323 29.35C78.723 29.7833 79.8564 30.4167 80.723 31.25C81.623 32.05 82.3397 32.9833 82.873 34.05C83.4064 35.0833 83.8564 36.1833 84.223 37.35L86.623 45H79.623L78.073 39.05C77.7064 37.6833 77.223 36.4667 76.623 35.4C76.0564 34.3 75.173 33.45 73.973 32.85C72.8064 32.25 71.123 31.95 68.923 31.95H66.023V45H59.673ZM92.7031 39.05V18.55H98.0031V39.05H92.7031ZM85.5031 31.35V26.25H105.203V31.35H85.5031Z" fill="#043A3A"/>
<path d="M1.312 76.992C1.13067 76.992 0.928 76.9813 0.704 76.96C0.48 76.9387 0.250667 76.9013 0.016 76.848V75.632C0.218667 75.6747 0.410667 75.7067 0.592 75.728C0.773333 75.7493 0.928 75.76 1.056 75.76C1.54667 75.76 1.90933 75.6107 2.144 75.312C2.38933 75.0133 2.512 74.5387 2.512 73.888V62.72H4.016V73.904C4.016 74.576 3.92 75.1413 3.728 75.6C3.536 76.0587 3.24267 76.4053 2.848 76.64C2.45333 76.8747 1.94133 76.992 1.312 76.992ZM9.99863 74.144C9.20929 74.144 8.52663 73.9787 7.95063 73.648C7.37463 73.3067 6.92663 72.8267 6.60663 72.208C6.28663 71.5787 6.12663 70.832 6.12663 69.968C6.12663 69.1147 6.28663 68.3787 6.60663 67.76C6.92663 67.1307 7.37463 66.6507 7.95063 66.32C8.52663 65.9787 9.20929 65.808 9.99863 65.808C10.788 65.808 11.4706 65.9787 12.0466 66.32C12.6333 66.6507 13.0813 67.1307 13.3906 67.76C13.7106 68.3787 13.8706 69.1147 13.8706 69.968C13.8706 70.832 13.7106 71.5787 13.3906 72.208C13.0813 72.8267 12.6333 73.3067 12.0466 73.648C11.4706 73.9787 10.788 74.144 9.99863 74.144ZM9.99863 72.992C10.724 72.992 11.3053 72.736 11.7426 72.224C12.18 71.712 12.3986 70.96 12.3986 69.968C12.3986 68.976 12.18 68.2293 11.7426 67.728C11.3053 67.2267 10.724 66.976 9.99863 66.976C9.26263 66.976 8.67596 67.2267 8.23863 67.728C7.81196 68.2293 7.59863 68.976 7.59863 69.968C7.59863 70.96 7.81196 71.712 8.23863 72.224C8.67596 72.736 9.26263 72.992 9.99863 72.992ZM15.8254 74V65.952H17.2814V74H15.8254ZM15.6974 64.192V62.624H17.4254V64.192H15.6974ZM19.716 74V67.856C19.716 67.5467 19.7053 67.232 19.684 66.912C19.6627 66.592 19.6307 66.272 19.588 65.952H20.996L21.156 67.68H20.964C21.2093 67.072 21.588 66.608 22.1 66.288C22.612 65.968 23.2093 65.808 23.892 65.808C24.8413 65.808 25.556 66.0693 26.036 66.592C26.516 67.104 26.756 67.904 26.756 68.992V74H25.3V69.072C25.3 68.336 25.156 67.808 24.868 67.488C24.58 67.1573 24.132 66.992 23.524 66.992C22.7987 66.992 22.2227 67.2107 21.796 67.648C21.38 68.0853 21.172 68.6773 21.172 69.424V74H19.716ZM32.8019 74.144C31.5219 74.144 30.5085 73.776 29.7619 73.04C29.0259 72.304 28.6579 71.2907 28.6579 70C28.6579 69.1467 28.8179 68.4107 29.1379 67.792C29.4685 67.1627 29.9219 66.6773 30.4979 66.336C31.0739 65.984 31.7459 65.808 32.5139 65.808C33.2499 65.808 33.8739 65.968 34.3859 66.288C34.8979 66.5973 35.2872 67.04 35.5539 67.616C35.8205 68.192 35.9539 68.8747 35.9539 69.664V70.144H29.7939V69.28H34.9619L34.6899 69.488C34.6899 68.656 34.5032 68.0107 34.1299 67.552C33.7672 67.0933 33.2285 66.864 32.5139 66.864C31.7352 66.864 31.1325 67.136 30.7059 67.68C30.2792 68.2133 30.0659 68.944 30.0659 69.872V70.016C30.0659 70.9973 30.3059 71.7387 30.7859 72.24C31.2765 72.7413 31.9539 72.992 32.8179 72.992C33.2979 72.992 33.7459 72.9227 34.1619 72.784C34.5779 72.6453 34.9779 72.416 35.3619 72.096L35.8419 73.104C35.4792 73.4347 35.0259 73.6907 34.4819 73.872C33.9485 74.0533 33.3885 74.144 32.8019 74.144ZM40.9286 74.144C40.2246 74.144 39.606 73.9787 39.0726 73.648C38.5393 73.3173 38.1233 72.8373 37.8246 72.208C37.526 71.5787 37.3766 70.832 37.3766 69.968C37.3766 69.104 37.526 68.3627 37.8246 67.744C38.1233 67.1147 38.5393 66.6347 39.0726 66.304C39.606 65.9733 40.2246 65.808 40.9286 65.808C41.6326 65.808 42.246 65.984 42.7686 66.336C43.302 66.688 43.6593 67.1733 43.8406 67.792H43.6486V62.224H45.1046V74H43.6646V72.128H43.8406C43.67 72.7573 43.318 73.2533 42.7846 73.616C42.262 73.968 41.6433 74.144 40.9286 74.144ZM41.2646 72.992C41.99 72.992 42.5713 72.736 43.0086 72.224C43.4566 71.712 43.6806 70.96 43.6806 69.968C43.6806 68.976 43.4566 68.2293 43.0086 67.728C42.5713 67.2267 41.99 66.976 41.2646 66.976C40.5393 66.976 39.9526 67.2267 39.5046 67.728C39.0673 68.2293 38.8486 68.976 38.8486 69.968C38.8486 70.96 39.0673 71.712 39.5046 72.224C39.9526 72.736 40.5393 72.992 41.2646 72.992ZM51.7629 74V65.952H53.2189V74H51.7629ZM51.6349 64.192V62.624H53.3629V64.192H51.6349ZM55.6535 74V67.856C55.6535 67.5467 55.6428 67.232 55.6215 66.912C55.6002 66.592 55.5682 66.272 55.5255 65.952H56.9335L57.0935 67.68H56.9015C57.1468 67.072 57.5255 66.608 58.0375 66.288C58.5495 65.968 59.1468 65.808 59.8295 65.808C60.7788 65.808 61.4935 66.0693 61.9735 66.592C62.4535 67.104 62.6935 67.904 62.6935 68.992V74H61.2375V69.072C61.2375 68.336 61.0935 67.808 60.8055 67.488C60.5175 67.1573 60.0695 66.992 59.4615 66.992C58.7362 66.992 58.1602 67.2107 57.7335 67.648C57.3175 68.0853 57.1095 68.6773 57.1095 69.424V74H55.6535ZM72.3661 74.144C71.6621 74.144 71.0435 73.9787 70.5101 73.648C69.9768 73.3173 69.5608 72.8373 69.2621 72.208C68.9635 71.5787 68.8141 70.832 68.8141 69.968C68.8141 69.104 68.9635 68.3627 69.2621 67.744C69.5608 67.1147 69.9768 66.6347 70.5101 66.304C71.0435 65.9733 71.6621 65.808 72.3661 65.808C73.0808 65.808 73.6995 65.9893 74.2221 66.352C74.7555 66.704 75.1075 67.1893 75.2781 67.808H75.0861L75.2621 65.952H76.6701C76.6381 66.272 76.6061 66.592 76.5741 66.912C76.5528 67.232 76.5421 67.5467 76.5421 67.856V74H75.0861V72.16H75.2621C75.0915 72.768 74.7395 73.2533 74.2061 73.616C73.6835 73.968 73.0701 74.144 72.3661 74.144ZM72.7021 72.992C73.4275 72.992 74.0088 72.736 74.4461 72.224C74.8835 71.712 75.1021 70.96 75.1021 69.968C75.1021 68.976 74.8835 68.2293 74.4461 67.728C74.0088 67.2267 73.4275 66.976 72.7021 66.976C71.9768 66.976 71.3901 67.2267 70.9421 67.728C70.5048 68.2293 70.2861 68.976 70.2861 69.968C70.2861 70.96 70.5048 71.712 70.9421 72.224C71.3795 72.736 71.9661 72.992 72.7021 72.992ZM78.9816 74V62.224H80.4376V74H78.9816ZM82.8563 74V67.92C82.8563 67.6 82.8456 67.2747 82.8243 66.944C82.8136 66.6027 82.7869 66.272 82.7443 65.952H84.1523L84.3283 67.968L84.0883 67.984C84.1949 67.4933 84.3763 67.088 84.6323 66.768C84.8989 66.4373 85.2136 66.1973 85.5763 66.048C85.9496 65.888 86.3336 65.808 86.7283 65.808C86.8989 65.808 87.0429 65.8133 87.1603 65.824C87.2776 65.8347 87.3949 65.8613 87.5123 65.904L87.4803 67.2C87.3203 67.136 87.1709 67.0987 87.0323 67.088C86.9043 67.0667 86.7443 67.056 86.5523 67.056C86.0829 67.056 85.6776 67.1627 85.3363 67.376C85.0056 67.5893 84.7496 67.872 84.5683 68.224C84.3976 68.576 84.3123 68.9547 84.3123 69.36V74H82.8563ZM92.3488 74.144C91.0688 74.144 90.0554 73.776 89.3088 73.04C88.5728 72.304 88.2048 71.2907 88.2048 70C88.2048 69.1467 88.3648 68.4107 88.6848 67.792C89.0154 67.1627 89.4688 66.6773 90.0448 66.336C90.6208 65.984 91.2928 65.808 92.0608 65.808C92.7968 65.808 93.4208 65.968 93.9328 66.288C94.4448 66.5973 94.8341 67.04 95.1008 67.616C95.3674 68.192 95.5008 68.8747 95.5008 69.664V70.144H89.3408V69.28H94.5088L94.2368 69.488C94.2368 68.656 94.0501 68.0107 93.6768 67.552C93.3141 67.0933 92.7754 66.864 92.0608 66.864C91.2821 66.864 90.6794 67.136 90.2528 67.68C89.8261 68.2133 89.6128 68.944 89.6128 69.872V70.016C89.6128 70.9973 89.8528 71.7387 90.3328 72.24C90.8234 72.7413 91.5008 72.992 92.3648 72.992C92.8448 72.992 93.2928 72.9227 93.7088 72.784C94.1248 72.6453 94.5248 72.416 94.9088 72.096L95.3888 73.104C95.0261 73.4347 94.5728 73.6907 94.0288 73.872C93.4954 74.0533 92.9354 74.144 92.3488 74.144ZM100.476 74.144C99.7715 74.144 99.1528 73.9787 98.6195 73.648C98.0862 73.3173 97.6702 72.8373 97.3715 72.208C97.0728 71.5787 96.9235 70.832 96.9235 69.968C96.9235 69.104 97.0728 68.3627 97.3715 67.744C97.6702 67.1147 98.0862 66.6347 98.6195 66.304C99.1528 65.9733 99.7715 65.808 100.476 65.808C101.19 65.808 101.809 65.9893 102.332 66.352C102.865 66.704 103.217 67.1893 103.388 67.808H103.196L103.372 65.952H104.78C104.748 66.272 104.716 66.592 104.684 66.912C104.662 67.232 104.652 67.5467 104.652 67.856V74H103.196V72.16H103.372C103.201 72.768 102.849 73.2533 102.316 73.616C101.793 73.968 101.18 74.144 100.476 74.144ZM100.812 72.992C101.537 72.992 102.118 72.736 102.556 72.224C102.993 71.712 103.212 70.96 103.212 69.968C103.212 68.976 102.993 68.2293 102.556 67.728C102.118 67.2267 101.537 66.976 100.812 66.976C100.086 66.976 99.4995 67.2267 99.0515 67.728C98.6142 68.2293 98.3955 68.976 98.3955 69.968C98.3955 70.96 98.6142 71.712 99.0515 72.224C99.4888 72.736 100.076 72.992 100.812 72.992ZM110.163 74.144C109.459 74.144 108.84 73.9787 108.307 73.648C107.774 73.3173 107.358 72.8373 107.059 72.208C106.76 71.5787 106.611 70.832 106.611 69.968C106.611 69.104 106.76 68.3627 107.059 67.744C107.358 67.1147 107.774 66.6347 108.307 66.304C108.84 65.9733 109.459 65.808 110.163 65.808C110.867 65.808 111.48 65.984 112.003 66.336C112.536 66.688 112.894 67.1733 113.075 67.792H112.883V62.224H114.339V74H112.899V72.128H113.075C112.904 72.7573 112.552 73.2533 112.019 73.616C111.496 73.968 110.878 74.144 110.163 74.144ZM110.499 72.992C111.224 72.992 111.806 72.736 112.243 72.224C112.691 71.712 112.915 70.96 112.915 69.968C112.915 68.976 112.691 68.2293 112.243 67.728C111.806 67.2267 111.224 66.976 110.499 66.976C109.774 66.976 109.187 67.2267 108.739 67.728C108.302 68.2293 108.083 68.976 108.083 69.968C108.083 70.96 108.302 71.712 108.739 72.224C109.187 72.736 109.774 72.992 110.499 72.992ZM116.507 77.632L116.171 76.448C116.672 76.3307 117.088 76.192 117.419 76.032C117.749 75.8827 118.027 75.6853 118.251 75.44C118.475 75.1947 118.672 74.8853 118.843 74.512L119.243 73.552L119.211 74.16L115.707 65.952H117.275L120.075 72.848H119.659L122.459 65.952H123.963L120.266 74.624C120.043 75.1467 119.797 75.584 119.531 75.936C119.275 76.288 118.992 76.576 118.683 76.8C118.384 77.024 118.053 77.2 117.691 77.328C117.328 77.456 116.933 77.5573 116.507 77.632Z" fill="#525252"/>
</svg>
